<svg xmlns="http://www.w3.org/2000/svg" width="22" height="22"  fill="#fff" xmlns:v="https://vecta.io/nano"><path d="M21.934 6.465c-.054-1.171-.24-1.971-.511-2.67a5.39 5.39 0 0 0-1.269-1.948A5.38 5.38 0 0 0 18.206.578c-.7-.272-1.499-.458-2.67-.511L11 0 6.465.066c-1.171.054-1.97.24-2.67.511a5.39 5.39 0 0 0-1.948 1.269 5.39 5.39 0 0 0-1.27 1.949c-.272.7-.458 1.499-.511 2.67L0 11l.066 4.535c.053 1.171.239 1.97.511 2.67a5.39 5.39 0 0 0 1.269 1.948 5.39 5.39 0 0 0 1.948 1.269c.7.272 1.499.458 2.67.511L11 22l4.535-.066c1.171-.054 1.97-.239 2.67-.511a5.62 5.62 0 0 0 3.217-3.217c.272-.7.458-1.499.511-2.67L22 11l-.066-4.535zm-1.98 8.98c-.049 1.073-.228 1.655-.379 2.043-.37.959-1.128 1.718-2.088 2.088-.388.151-.97.33-2.043.379L11 20.018c-2.937 0-3.285-.011-4.445-.064-1.072-.049-1.655-.228-2.043-.379a3.41 3.41 0 0 1-1.265-.823 3.41 3.41 0 0 1-.823-1.265c-.151-.388-.33-.97-.379-2.043L1.982 11l.064-4.445c.049-1.073.228-1.655.379-2.043a3.41 3.41 0 0 1 .823-1.265 3.41 3.41 0 0 1 1.265-.823c.388-.151.97-.33 2.043-.379L11 1.982l4.445.064c1.073.049 1.655.228 2.043.379a3.41 3.41 0 0 1 1.265.823 3.41 3.41 0 0 1 .823 1.265c.151.388.33.97.379 2.043L20.018 11l-.064 4.445zM11 5.351A5.65 5.65 0 0 0 5.351 11 5.65 5.65 0 0 0 11 16.649 5.65 5.65 0 0 0 16.649 11 5.65 5.65 0 0 0 11 5.351zm0 9.315A3.67 3.67 0 0 1 7.333 11 3.67 3.67 0 0 1 11 7.333 3.67 3.67 0 0 1 14.667 11 3.67 3.67 0 0 1 11 14.667zm7.192-9.538a1.32 1.32 0 1 1-2.64 0 1.32 1.32 0 1 1 2.64 0h0z"/></svg>